<svg width="24" height="24" fill="none" xmlns="http://www.w3.org/2000/svg"><g clip-path="url(#clip0_1_1046)"><path d="M22.44 7.8c-.49-1.179-1.482-2.45-2.26-2.852.633 1.242 1 2.489 1.14 3.419l.003.018c-1.274-3.175-3.434-4.455-5.198-7.243a12.03 12.03 0 01-.266-.432 3.274 3.274 0 01-.123-.234 2.05 2.05 0 01-.176-.464.03.03 0 00-.018-.01.04.04 0 00-.021 0 .022.022 0 00-.005.003c-.003 0-.006.003-.009.004l.005-.006c-2.83 1.657-3.79 4.723-3.878 6.258A5.638 5.638 0 008.53 7.455a3.335 3.335 0 00-.291-.22 5.221 5.221 0 01-.032-2.753c-1.157.527-2.057 1.36-2.711 2.095H5.49c-.446-.565-.415-2.431-.39-2.82-.005-.025-.332.17-.375.199a8.19 8.19 0 00-1.1.943c-.386.39-.738.812-1.053 1.261a9.51 9.51 0 00-1.511 3.414l-.015.074c-.021.1-.098.596-.111.703v.025c-.1.513-.162 1.033-.186 1.555v.057c0 6.221 5.044 11.265 11.265 11.265 5.572 0 10.198-4.045 11.104-9.359.019-.144.034-.289.051-.434.224-1.933-.025-3.963-.73-5.66zM9.454 16.616c.053.025.102.053.156.077l.008.005a7.924 7.924 0 01-.163-.082zM21.322 8.39v-.01.012-.001z" fill="url(#paint0_linear_1_1046)"/><path d="M22.44 7.8c-.49-1.179-1.482-2.45-2.26-2.852.633 1.242 1 2.489 1.14 3.419v.023c1.063 2.882.484 5.812-.35 7.603-1.291 2.77-4.417 5.61-9.309 5.472-5.281-.15-9.937-4.074-10.807-9.21-.158-.81 0-1.221.08-1.879-.097.507-.134.654-.183 1.555v.057c0 6.222 5.044 11.265 11.265 11.265 5.572 0 10.199-4.045 11.105-9.359.018-.144.034-.289.05-.434.223-1.932-.026-3.963-.732-5.66z" fill="url(#paint1_radial_1_1046)"/><path d="M22.44 7.8c-.49-1.179-1.482-2.45-2.26-2.852.633 1.242 1 2.489 1.14 3.419v.023c1.063 2.882.484 5.812-.35 7.603-1.291 2.77-4.417 5.61-9.309 5.472-5.281-.15-9.937-4.074-10.807-9.21-.158-.81 0-1.221.08-1.879-.097.507-.134.654-.183 1.555v.057c0 6.222 5.044 11.265 11.265 11.265 5.572 0 10.199-4.045 11.105-9.359.018-.144.034-.289.05-.434.223-1.932-.026-3.963-.732-5.66z" fill="url(#paint2_radial_1_1046)"/><path d="M16.965 9.123c.025.017.047.035.07.052A6.116 6.116 0 0015.99 7.81c-3.502-3.502-.918-7.593-.482-7.801l.004-.006c-2.83 1.657-3.79 4.724-3.878 6.258.132-.01.263-.02.396-.02 2.112 0 3.951 1.161 4.936 2.882z" fill="url(#paint3_radial_1_1046)"/><path d="M12.036 9.822c-.018.281-1.008 1.247-1.355 1.247-3.203 0-3.723 1.938-3.723 1.938.14 1.632 1.278 2.976 2.654 3.687.063.032.126.061.187.09.11.047.221.094.331.136.472.166.966.261 1.466.281 5.615.264 6.703-6.713 2.65-8.74 1.038-.18 2.115.238 2.717.66-.985-1.72-2.825-2.882-4.936-2.882-.134 0-.265.011-.396.02a5.638 5.638 0 00-3.1 1.196c.172.146.366.34.775.742.766.756 2.726 1.534 2.73 1.625z" fill="url(#paint4_radial_1_1046)"/><path d="M12.036 9.822c-.018.281-1.008 1.247-1.355 1.247-3.203 0-3.723 1.938-3.723 1.938.14 1.632 1.278 2.976 2.654 3.687.063.032.126.061.187.09.11.047.221.094.331.136.472.166.966.261 1.466.281 5.615.264 6.703-6.713 2.65-8.74 1.038-.18 2.115.238 2.717.66-.985-1.72-2.825-2.882-4.936-2.882-.134 0-.265.011-.396.02a5.638 5.638 0 00-3.1 1.196c.172.146.366.34.775.742.766.756 2.726 1.534 2.73 1.625z" fill="url(#paint5_radial_1_1046)"/><path d="M8.008 7.08l.234.155a5.221 5.221 0 01-.031-2.753c-1.158.527-2.058 1.36-2.712 2.095.053 0 1.687-.03 2.509.504z" fill="url(#paint6_radial_1_1046)"/><path d="M.854 12.255c.87 5.136 5.526 9.06 10.81 9.21 4.893.138 8.016-2.702 9.31-5.472.834-1.791 1.413-4.721.35-7.603v-.022l.002.019c.4 2.61-.927 5.137-3.002 6.847a.265.265 0 00-.006.014c-4.043 3.293-7.912 1.987-8.695 1.454a6.553 6.553 0 01-.164-.082c-2.357-1.125-3.33-3.274-3.122-5.116-1.99 0-2.669-1.679-2.669-1.679s1.787-1.274 4.142-.166c2.181 1.027 4.23.167 4.23.166-.004-.091-1.965-.871-2.73-1.625-.408-.402-.602-.596-.774-.742a3.331 3.331 0 00-.291-.22 5.843 5.843 0 00-.235-.154c-.821-.535-2.455-.505-2.51-.504h-.004c-.447-.565-.416-2.432-.39-2.821-.006-.024-.333.17-.375.2a8.19 8.19 0 00-1.101.943c-.386.39-.737.812-1.052 1.261a9.51 9.51 0 00-1.512 3.414c-.009.021-.41 1.771-.212 2.678z" fill="url(#paint7_radial_1_1046)"/><path d="M15.989 7.81c.411.403.764.863 1.046 1.365.059.044.115.09.169.14 2.554 2.352 1.218 5.68 1.116 5.92 2.075-1.71 3.402-4.238 3.003-6.848-1.274-3.177-3.434-4.457-5.198-7.245a10.31 10.31 0 01-.266-.432 3.278 3.278 0 01-.124-.234 2.049 2.049 0 01-.175-.464.03.03 0 00-.018-.01.04.04 0 00-.021 0 .022.022 0 00-.005.003c-.003 0-.006.003-.009.004-.436.208-3.02 4.3.482 7.8z" fill="url(#paint8_radial_1_1046)"/><path d="M17.203 9.313a2.163 2.163 0 00-.169-.14l-.07-.053c-.601-.421-1.679-.84-2.716-.66 4.052 2.027 2.964 9.004-2.65 8.74a5.01 5.01 0 01-1.466-.281 6.242 6.242 0 01-.331-.136 3.286 3.286 0 01-.188-.09l.008.005c.783.534 4.652 1.84 8.694-1.453l.006-.015c.1-.235 1.437-3.563-1.118-5.917z" fill="url(#paint9_radial_1_1046)"/><path d="M6.958 13.007s.52-1.938 3.723-1.938c.347 0 1.337-.967 1.355-1.247.018-.28-2.048.86-4.23-.166-2.354-1.108-4.141.166-4.141.166s.678 1.68 2.668 1.68c-.208 1.841.765 3.988 3.123 5.115.052.025.102.053.156.077-1.376-.71-2.512-2.055-2.654-3.687z" fill="url(#paint10_radial_1_1046)"/><path d="M22.44 7.8c-.49-1.179-1.482-2.45-2.26-2.852.633 1.242 1 2.489 1.14 3.419l.003.018c-1.274-3.175-3.434-4.455-5.198-7.243a12.03 12.03 0 01-.266-.432 3.274 3.274 0 01-.123-.234 2.05 2.05 0 01-.176-.464.03.03 0 00-.018-.01.04.04 0 00-.021 0 .022.022 0 00-.005.003c-.003 0-.006.003-.009.004l.005-.006c-2.83 1.657-3.79 4.723-3.878 6.258.131-.01.262-.02.396-.02 2.111 0 3.95 1.161 4.935 2.882-.6-.422-1.678-.84-2.716-.66 4.052 2.026 2.964 9.003-2.65 8.74-.5-.02-.994-.115-1.466-.282a6.05 6.05 0 01-.331-.135 3.285 3.285 0 01-.187-.09l.007.004a6.916 6.916 0 01-.164-.081c.053.024.103.052.157.076-1.38-.71-2.515-2.056-2.657-3.688 0 0 .52-1.938 3.723-1.938.347 0 1.337-.967 1.355-1.247-.004-.091-1.964-.871-2.729-1.624-.408-.403-.602-.597-.774-.743a3.334 3.334 0 00-.292-.22 5.221 5.221 0 01-.031-2.753c-1.158.527-2.058 1.36-2.712 2.095h-.005c-.447-.565-.416-2.431-.39-2.82-.005-.025-.333.17-.375.199a8.19 8.19 0 00-1.101.943c-.385.39-.737.812-1.052 1.261a9.51 9.51 0 00-1.512 3.414l-.015.074c-.021.1-.117.603-.13.71 0-.008 0 .009 0 0-.087.52-.144 1.046-.168 1.573v.057c0 6.221 5.044 11.265 11.265 11.265 5.572 0 10.198-4.045 11.104-9.359.019-.144.034-.289.051-.434.224-1.933-.025-3.963-.73-5.66zm-1.118.577v.013-.013z" fill="url(#paint11_linear_1_1046)"/></g><defs><radialGradient id="paint1_radial_1_1046" cx="0" cy="0" r="1" gradientUnits="userSpaceOnUse" gradientTransform="matrix(23.4848 0 0 23.4849 20.084 2.581)"><stop offset=".13" stop-color="#FFBD4F"/><stop offset=".19" stop-color="#FFAC31"/><stop offset=".25" stop-color="#FF9D17"/><stop offset=".28" stop-color="#FF980E"/><stop offset=".4" stop-color="#FF563B"/><stop offset=".47" stop-color="#FF3750"/><stop offset=".71" stop-color="#F5156C"/><stop offset=".78" stop-color="#EB0878"/><stop offset=".86" stop-color="#E50080"/></radialGradient><radialGradient id="paint2_radial_1_1046" cx="0" cy="0" r="1" gradientUnits="userSpaceOnUse" gradientTransform="matrix(23.4848 0 0 23.4849 11.503 12.182)"><stop offset=".3" stop-color="#960E18"/><stop offset=".35" stop-color="#B11927" stop-opacity=".74"/><stop offset=".43" stop-color="#DB293D" stop-opacity=".34"/><stop offset=".5" stop-color="#F5334B" stop-opacity=".09"/><stop offset=".53" stop-color="#FF3750" stop-opacity="0"/></radialGradient><radialGradient id="paint3_radial_1_1046" cx="0" cy="0" r="1" gradientUnits="userSpaceOnUse" gradientTransform="translate(14.334 -2.749) scale(17.0138)"><stop offset=".13" stop-color="#FFF44F"/><stop offset=".25" stop-color="#FFDC3E"/><stop offset=".51" stop-color="#FF9D12"/><stop offset=".53" stop-color="#FF980E"/></radialGradient><radialGradient id="paint4_radial_1_1046" cx="0" cy="0" r="1" gradientUnits="userSpaceOnUse" gradientTransform="translate(8.905 18.316) scale(11.182)"><stop offset=".35" stop-color="#3A8EE6"/><stop offset=".47" stop-color="#5C79F0"/><stop offset=".67" stop-color="#9059FF"/><stop offset="1" stop-color="#C139E6"/></radialGradient><radialGradient id="paint5_radial_1_1046" cx="0" cy="0" r="1" gradientUnits="userSpaceOnUse" gradientTransform="matrix(5.75089 -1.4229 1.67157 6.75592 11.84 9.39)"><stop offset=".21" stop-color="#9059FF" stop-opacity="0"/><stop offset=".28" stop-color="#8C4FF3" stop-opacity=".06"/><stop offset=".75" stop-color="#7716A8" stop-opacity=".45"/><stop offset=".97" stop-color="#6E008B" stop-opacity=".6"/></radialGradient><radialGradient id="paint6_radial_1_1046" cx="0" cy="0" r="1" gradientUnits="userSpaceOnUse" gradientTransform="translate(11.206 1.62) scale(8.04469)"><stop stop-color="#FFE226"/><stop offset=".12" stop-color="#FFDB27"/><stop offset=".3" stop-color="#FFC82A"/><stop offset=".5" stop-color="#FFA930"/><stop offset=".73" stop-color="#FF7E37"/><stop offset=".79" stop-color="#FF7139"/></radialGradient><radialGradient id="paint7_radial_1_1046" cx="0" cy="0" r="1" gradientUnits="userSpaceOnUse" gradientTransform="translate(17.53 -3.482) scale(34.3223)"><stop offset=".11" stop-color="#FFF44F"/><stop offset=".46" stop-color="#FF980E"/><stop offset=".62" stop-color="#FF5634"/><stop offset=".72" stop-color="#FF3647"/><stop offset=".9" stop-color="#E31587"/></radialGradient><radialGradient id="paint8_radial_1_1046" cx="0" cy="0" r="1" gradientUnits="userSpaceOnUse" gradientTransform="matrix(2.51424 24.89094 -16.35348 1.65187 14.212 .268)"><stop stop-color="#FFF44F"/><stop offset=".06" stop-color="#FFE847"/><stop offset=".17" stop-color="#FFC830"/><stop offset=".3" stop-color="#FF980E"/><stop offset=".36" stop-color="#FF8B16"/><stop offset=".45" stop-color="#FF672A"/><stop offset=".57" stop-color="#FF3647"/><stop offset=".74" stop-color="#E31587"/></radialGradient><radialGradient id="paint9_radial_1_1046" cx="0" cy="0" r="1" gradientUnits="userSpaceOnUse" gradientTransform="translate(11.017 4.6) scale(21.4275)"><stop offset=".14" stop-color="#FFF44F"/><stop offset=".48" stop-color="#FF980E"/><stop offset=".59" stop-color="#FF5634"/><stop offset=".66" stop-color="#FF3647"/><stop offset=".9" stop-color="#E31587"/></radialGradient><radialGradient id="paint10_radial_1_1046" cx="0" cy="0" r="1" gradientUnits="userSpaceOnUse" gradientTransform="translate(16.673 5.854) scale(23.4525)"><stop offset=".09" stop-color="#FFF44F"/><stop offset=".23" stop-color="#FFE141"/><stop offset=".51" stop-color="#FFAF1E"/><stop offset=".63" stop-color="#FF980E"/></radialGradient><linearGradient id="paint0_linear_1_1046" x1="20.948" y1="3.602" x2="2.247" y2="21.645" gradientUnits="userSpaceOnUse"><stop offset=".05" stop-color="#FFF44F"/><stop offset=".11" stop-color="#FFE847"/><stop offset=".22" stop-color="#FFC830"/><stop offset=".37" stop-color="#FF980E"/><stop offset=".4" stop-color="#FF8B16"/><stop offset=".46" stop-color="#FF672A"/><stop offset=".53" stop-color="#FF3647"/><stop offset=".7" stop-color="#E31587"/></linearGradient><linearGradient id="paint11_linear_1_1046" x1="20.723" y1="3.506" x2="4.811" y2="19.418" gradientUnits="userSpaceOnUse"><stop offset=".17" stop-color="#FFF44F" stop-opacity=".8"/><stop offset=".27" stop-color="#FFF44F" stop-opacity=".63"/><stop offset=".49" stop-color="#FFF44F" stop-opacity=".22"/><stop offset=".6" stop-color="#FFF44F" stop-opacity="0"/></linearGradient><clipPath id="clip0_1_1046"><path fill="#fff" d="M0 0h24v24H0z"/></clipPath></defs></svg>