<svg width="29" height="29" fill="none" xmlns="http://www.w3.org/2000/svg"><g clip-path="url(#clip0_1_243)"><path d="M.941 0a.824.824 0 00-.39.088.977.977 0 00-.329.27 1.04 1.04 0 00-.19.39 1.17 1.17 0 00-.023.45l3.947 26.628c.06.337.217.639.442.852.226.214.507.328.794.321h18.922a.817.817 0 00.597-.23 1.14 1.14 0 00.332-.638l3.945-26.927a1.17 1.17 0 00-.025-.45 1.042 1.042 0 00-.189-.388.977.977 0 00-.327-.27.824.824 0 00-.391-.088L.94 0zm16.608 19.245H11.51l-1.636-9.5h9.14l-1.465 9.5z" fill="#2684FF"/><path d="M27.732 9.744h-8.719l-1.463 9.501h-6.04l-7.13 9.409c.231.22.517.34.813.34H24.12a.817.817 0 00.597-.23 1.14 1.14 0 00.332-.637l2.684-18.383z" fill="url(#paint0_linear_1_243)"/></g><defs><linearGradient id="paint0_linear_1_243" x1="29.74" y1="12.401" x2="18.195" y2="27.155" gradientUnits="userSpaceOnUse"><stop offset=".18" stop-color="#0052CC"/><stop offset="1" stop-color="#2684FF"/></linearGradient><clipPath id="clip0_1_243"><path fill="#fff" d="M0 0h29v29H0z"/></clipPath></defs></svg>